<svg width="800" height="738" viewBox="0 0 800 738" fill="none" xmlns="http://www.w3.org/2000/svg">
<path d="M787.972 274.609C771.381 264.669 741.55 206.619 734.911 199.992C728.272 193.342 690.127 178.414 690.127 178.414L668.572 110.423C627.1 115.4 602.245 181.727 600.583 186.703C600.583 186.703 596.425 301.959 412.349 257.188C280.416 225.094 201.067 194.052 134.424 256.625C130.255 249.472 127.406 242.197 125.327 234.348C121.611 220.189 120.767 203.942 120.78 185.43C120.78 176.358 120.95 166.798 120.963 156.773C120.95 135.78 120.192 112.636 114.641 88C109.141 63.3531 98.6502 37.3484 80.2252 11.4406C72.2783 0.240633 56.7502 -2.39999 45.5393 5.55938C34.3408 13.5188 31.6986 29.0453 39.658 40.2453C54.1955 60.7844 61.7861 79.8828 66.1143 98.9188C70.3939 117.93 71.2252 137.039 71.2143 156.773C71.2143 166.186 71.0299 175.736 71.0299 185.43C71.0549 205.189 71.7143 225.741 77.1674 246.867C81.458 263.641 89.233 280.586 101.399 296.408C49.8908 377.528 78.183 463.663 78.183 463.663L24.9127 548.414C23.9471 549.942 23.2986 551.642 22.9689 553.402L0.228319 678.489C-0.773244 683.991 1.57519 689.552 6.19551 692.683L70.2252 736.063C71.5939 737.003 73.2939 737.273 74.883 736.833C76.4861 736.405 77.7939 735.28 78.4893 733.787L91.4986 705.936C92.4643 703.845 92.0736 701.377 90.508 699.689L73.7455 681.802C70.3361 678.17 69.1002 672.998 70.4939 668.206L98.3689 572.842C99.2736 569.798 101.156 567.145 103.736 565.311L141.21 538.658C146.296 535.014 153.178 535.186 158.094 539.05C163.01 542.913 164.794 549.552 162.483 555.359L145.953 596.903C144.047 601.67 144.889 607.098 148.142 611.059L242.358 725.692H313.011C316.13 725.692 318.661 723.161 318.661 720.056V684.894C318.661 681.775 316.13 679.245 313.011 679.245H290.663C285.441 679.245 280.649 676.348 278.191 671.739L239.935 607.6C237.367 602.747 237.856 596.866 241.158 592.502L275.452 547.191C278.117 543.683 282.275 541.605 286.689 541.605H382.31C386.797 541.605 391.027 543.755 393.68 547.388C396.333 551.019 397.103 555.689 395.758 559.98L364.936 657.105C363.958 660.163 364.055 663.475 365.217 666.47L384.988 717.405H446.35V704.139L436.203 672.241C435.25 669.258 435.324 666.042 436.411 663.097L477.772 550.836C479.827 545.284 485.106 541.605 491.013 541.605H533.217C537.044 541.605 540.711 543.17 543.377 545.944L660.272 707.452C660.272 707.452 719.972 707.452 739.877 707.452C759.78 707.452 752.078 667.742 733.25 665.98C697.585 662.667 651.994 563.17 632.091 528.339C612.186 493.519 670.628 385.684 715.008 380.756C759.78 375.78 782.999 357.527 789.638 332.647C802.9 317.73 804.563 284.561 787.972 274.609Z" fill="#613B22"/>
</svg>
