<svg width="782" height="800" viewBox="0 0 782 800" fill="none" xmlns="http://www.w3.org/2000/svg">
<path d="M52.7374 486.691C41.9377 531.161 49.5644 564.818 71.7938 593.402C94.0232 621.987 69.2508 638.5 50.8359 647.396C32.421 656.292 25.4243 662.008 24.1551 674.709C22.8859 687.411 40.0385 736.965 48.2952 745.221C56.5519 753.478 74.9783 771.263 87.038 789.689C99.1092 808.104 114.983 796.045 114.983 796.045C126.413 804.941 137.852 796.045 137.852 796.045C158.18 805.573 170.249 792.232 170.249 792.232C180.407 780.163 158.819 767.462 158.819 767.462C145.479 743.961 135.318 763.018 131.506 757.934C127.694 752.85 124.521 752.218 104.193 728.719C83.865 705.221 136.59 712.836 155.007 708.392C173.424 703.947 208.364 680.448 208.364 680.448C208.364 708.392 217.892 703.949 231.865 718.561C245.838 733.173 252.193 742.701 270.608 750.319C289.023 757.946 297.921 756.674 314.436 767.474C330.952 778.274 365.251 776.37 365.251 776.37C380.492 781.456 395.107 776.37 395.107 776.37C431.948 776.37 416.704 763.669 403.363 746.514C390.023 729.359 363.349 743.971 351.28 735.714C339.211 727.457 309.355 714.756 294.111 705.858C278.869 696.962 294.111 681.088 294.111 666.476C294.111 651.864 305.541 640.434 305.541 640.434H364.611C364.611 640.434 410.339 637.261 422.411 662.031C434.482 686.801 452.897 691.887 453.536 705.228C454.177 718.568 442.736 719.84 442.736 719.84C417.324 712.855 416.695 753.508 416.695 753.508C447.82 794.796 508.164 736.353 508.164 736.353C578.032 729.998 572.949 627.101 572.949 627.101C586.921 616.943 609.158 590.259 623.763 566.117C638.375 541.977 679.66 523.562 716.502 541.347C753.343 559.132 759.698 529.278 759.698 529.278C772.399 531.179 776.212 514.666 776.212 514.666C792.725 496.251 763.51 491.797 762.871 446.067C762.232 400.337 724.128 392.071 726.03 378.74C727.931 365.399 766.683 322.842 757.155 326.654C748.841 329.977 713.913 347.34 705.164 351.699C704.874 350.55 704.299 348.911 703.161 346.352C698.075 334.922 642.178 371.122 642.178 371.122C642.178 371.122 553.574 423.526 536.419 427.341C519.262 431.153 521.177 419.714 500.217 421.625C479.257 423.526 468.768 425.437 374.449 385.413C280.12 345.399 108.321 409.75 108.321 409.75C108.321 409.75 -28.8627 191.067 85.4642 96.745C199.791 2.42297 46.8806 -76.1726 9.71854 129.613C-27.4412 335.4 63.5371 442.234 52.7374 486.691Z" fill="#613B22"/>
</svg>
