<svg width="1024" height="1024" viewBox="0 0 1024 1024" fill="none" xmlns="http://www.w3.org/2000/svg">
<rect width="1024" height="1024" fill="white" fill-opacity="0.15"/>
<path d="M693.766 552L644 591.433C576.5 634.433 490.326 648.896 445.873 647.897C401.42 646.898 360.306 638.509 327.496 591.433C294.687 544.356 329.505 447.376 386.435 433.531C452.35 417.501 496.763 431.597 530.783 446.024C579.585 466.72 652.72 516.546 693.766 552ZM693.766 552C602.766 676.5 522.49 719.5 445.873 719.5C369.256 719.5 323.88 693.181 279.547 629.408C246.562 581.959 243.174 522.618 232.597 479.503C224.377 445.997 222.533 434.115 203.627 413.044C190.647 398.577 163.67 393.057 167.665 387.061C171.661 381.064 188.099 378.941 203.627 374.069C216.494 370.031 252.076 334.094 252.076 334.094C252.076 334.094 289.422 302.905 334.489 305.112C398.966 308.269 454.364 426.753 454.364 426.753M693.766 552C693.766 552 788.266 426.753 816.999 441.952C816.999 441.952 828.266 448 838.766 458C849.266 468 855.266 477 855.266 477C882.766 511 693.766 552 693.766 552Z" stroke="#101820" stroke-width="12" stroke-linejoin="bevel"/>
</svg>
