<svg width="1024" height="1024" viewBox="0 0 1024 1024" fill="none" xmlns="http://www.w3.org/2000/svg">
<path d="M478.272 133.852C471.206 137.852 450.939 157.186 441.072 169.186L435.606 175.852L425.072 175.586C346.006 173.319 258.539 258.252 243.206 352.119C242.406 356.386 241.872 367.452 241.739 376.786C241.606 392.386 241.339 393.852 239.206 393.852C235.472 393.852 228.939 399.986 226.406 405.852C224.406 410.252 223.339 411.186 220.139 411.186C210.006 411.186 207.872 416.519 208.006 441.186C208.139 469.052 213.339 485.052 228.406 505.052C233.606 511.852 235.872 516.652 238.539 525.586C250.539 567.319 280.939 601.852 332.806 632.652C372.939 656.519 425.739 674.252 476.539 681.052C517.739 686.519 552.272 686.519 588.539 681.186C641.739 673.186 695.072 650.119 734.272 617.986C766.539 591.719 790.672 552.519 789.739 527.852C789.472 519.852 789.606 519.186 796.939 508.386C808.539 490.919 813.872 475.586 815.872 455.052C818.272 429.319 806.006 385.852 795.339 382.119C790.672 380.519 784.939 382.519 783.739 386.252C782.539 389.586 782.939 395.186 784.539 397.186C786.939 400.386 791.206 416.919 792.672 428.519C797.339 467.586 784.939 501.986 753.339 538.119C715.339 581.452 653.472 613.586 578.539 629.052C525.339 640.119 455.472 640.119 397.872 629.186C352.672 620.652 331.872 611.452 303.206 587.719C297.739 583.186 290.806 576.519 287.739 573.052C280.939 564.786 268.539 546.519 268.539 544.519C268.539 543.586 274.939 546.519 282.939 550.786C316.806 569.052 341.339 579.452 369.872 587.852C386.272 592.519 418.806 599.586 431.872 601.052C435.606 601.586 445.739 602.786 454.539 603.852C463.339 605.052 485.606 606.252 504.006 606.786L537.606 607.586L539.739 604.119C542.539 600.119 541.472 591.719 538.006 589.986C536.806 589.319 526.406 588.519 514.939 587.986C486.406 586.786 454.806 583.852 427.872 579.719C386.539 573.452 349.339 561.719 313.206 543.586C288.139 530.919 272.139 520.252 258.539 506.519C239.072 487.186 230.806 468.786 230.672 444.119C230.539 430.386 230.672 429.452 233.739 427.052C235.472 425.719 237.472 424.519 238.406 424.519C239.206 424.519 241.072 428.652 242.272 433.719C254.272 480.252 299.739 516.919 362.272 530.519C370.406 532.252 386.272 535.852 397.206 538.386C454.272 551.452 495.339 555.986 545.472 554.786C596.672 553.586 642.139 546.386 677.206 533.986C681.472 532.386 685.739 531.319 686.406 531.586C688.806 532.386 659.072 551.186 643.872 558.519C628.539 565.852 612.806 571.852 590.672 578.519C579.072 581.986 577.206 582.919 576.272 586.119C574.672 590.919 577.339 596.786 582.006 598.386C584.672 599.319 590.006 598.252 605.339 593.852C658.139 578.786 691.872 558.919 727.339 522.252C749.206 499.586 761.072 480.252 767.472 457.186C771.472 442.786 771.739 404.652 768.139 391.186C759.072 358.252 746.272 334.519 724.939 311.052C707.872 292.119 695.739 282.786 674.406 272.119C642.939 256.252 614.272 249.986 573.206 249.852H551.739L547.072 244.786C544.406 242.119 539.606 236.252 536.272 231.852C530.006 223.719 521.739 215.452 514.672 210.119C510.939 207.319 510.806 206.652 510.539 195.452C509.872 175.586 501.606 142.919 494.539 132.786C491.606 128.786 486.672 129.052 478.272 133.852ZM485.872 167.452C486.939 172.786 487.872 177.719 488.006 178.519C493.206 201.586 493.472 203.319 491.739 205.586C488.539 209.719 489.472 215.186 494.272 219.586C515.472 239.586 519.339 243.852 523.206 251.586C525.339 256.119 527.472 262.252 527.872 265.186C533.206 309.186 535.072 317.986 542.139 333.852C546.939 344.652 546.272 346.786 533.606 358.386C510.006 380.386 470.272 389.586 433.206 381.852C417.339 378.652 414.139 378.519 410.939 381.452C407.339 384.652 407.739 393.186 411.606 395.852C415.739 398.519 433.072 402.652 448.272 404.652C478.406 408.652 516.806 397.986 541.606 378.919C555.739 367.986 568.539 349.452 568.539 339.719C568.539 335.719 567.472 333.852 562.672 329.052C557.339 323.852 556.539 322.119 554.139 311.586C552.006 302.252 548.539 276.386 548.539 269.452C548.539 267.052 601.072 269.319 615.472 272.386C640.272 277.719 663.206 287.186 682.939 300.119C701.606 312.386 726.139 341.852 736.672 364.386C753.339 399.986 755.606 438.786 742.406 464.786C733.739 481.986 701.472 504.119 669.206 515.052C657.606 518.919 634.272 525.319 627.339 526.519C625.472 526.786 618.406 527.986 611.872 529.052C569.606 536.386 517.472 537.052 463.872 531.186C441.072 528.652 429.872 526.919 429.206 525.852C427.339 522.786 430.806 521.052 442.939 518.652C478.272 511.986 509.472 496.252 537.872 470.786C541.339 467.719 551.472 460.786 560.406 455.319C577.606 444.919 615.739 424.786 622.539 422.519C633.206 418.919 630.406 403.186 618.939 403.186C617.206 403.186 608.406 406.652 599.206 410.919C571.872 423.719 544.139 440.519 521.872 457.986C503.339 472.519 497.739 476.119 482.806 483.186C463.339 492.252 446.006 497.319 416.272 502.386C410.539 503.452 405.339 508.919 406.539 512.786C407.606 515.719 407.072 515.719 387.206 513.186C363.472 510.252 340.539 503.186 319.472 492.652C295.606 480.652 276.006 460.919 267.739 440.519C261.472 424.919 260.006 415.052 259.872 387.186C259.872 357.052 260.406 353.319 267.206 332.252C287.872 269.319 336.539 218.252 394.939 198.652C405.739 194.919 417.072 194.786 432.139 197.986C438.939 199.319 440.672 199.319 442.406 197.986C443.606 196.919 444.539 195.586 444.539 194.919C444.539 192.652 472.406 163.986 477.606 160.919C480.272 159.186 482.939 157.852 483.339 157.852C483.739 157.852 484.939 162.252 485.872 167.452ZM756.539 566.919C756.539 568.386 752.406 574.119 747.206 579.986C725.072 605.052 696.539 624.919 659.206 640.919C634.672 651.452 607.072 658.786 573.872 663.319C558.272 665.586 505.739 665.586 489.872 663.452C464.939 660.119 441.872 655.852 441.872 654.786C441.872 654.119 442.939 653.986 444.139 654.386C448.806 656.252 504.139 656.786 524.539 655.319C601.072 649.719 670.806 626.252 724.672 588.119C732.406 582.652 742.006 575.052 746.006 571.319C753.606 564.252 756.539 563.052 756.539 566.919Z" fill="#613B22"/>
<path d="M454.806 280.252C447.339 288.385 461.339 308.919 476.672 312.519C484.272 314.385 494.139 313.719 497.206 311.185C499.872 309.052 499.739 301.852 497.072 298.119C495.339 295.585 494.139 295.319 490.539 295.985C483.339 297.319 477.472 294.385 469.472 285.852C461.739 277.452 458.406 276.252 454.806 280.252Z" fill="#613B22"/>
<path d="M221.64 861C219.82 861 218.26 860.393 216.96 859.18C215.747 857.88 215.14 856.277 215.14 854.37V771.43C215.14 769.523 215.747 767.963 216.96 766.75C218.26 765.45 219.82 764.8 221.64 764.8C223.547 764.8 225.107 765.45 226.32 766.75C227.533 767.963 228.14 769.523 228.14 771.43V854.37C228.14 856.277 227.533 857.88 226.32 859.18C225.107 860.393 223.547 861 221.64 861ZM264.02 792.36C265.667 792.36 267.097 793.053 268.31 794.44C269.523 795.827 270.13 797.213 270.13 798.6C270.13 800.333 269.307 801.937 267.66 803.41L226.97 839.81L226.45 824.86L259.21 794.44C260.597 793.053 262.2 792.36 264.02 792.36ZM265.58 860.87C263.76 860.87 262.2 860.133 260.9 858.66L234.9 831.23L244.78 822.13L270.13 849.56C271.517 851.033 272.21 852.68 272.21 854.5C272.21 856.407 271.43 857.967 269.87 859.18C268.397 860.307 266.967 860.87 265.58 860.87ZM349.19 826.81C349.19 833.743 347.674 839.897 344.64 845.27C341.607 850.557 337.49 854.717 332.29 857.75C327.09 860.783 321.24 862.3 314.74 862.3C308.24 862.3 302.39 860.783 297.19 857.75C291.99 854.717 287.83 850.557 284.71 845.27C281.677 839.897 280.16 833.743 280.16 826.81C280.16 819.79 281.677 813.637 284.71 808.35C287.83 802.977 291.99 798.773 297.19 795.74C302.39 792.62 308.24 791.06 314.74 791.06C321.24 791.06 327.09 792.62 332.29 795.74C337.49 798.773 341.607 802.977 344.64 808.35C347.674 813.637 349.19 819.79 349.19 826.81ZM336.19 826.81C336.19 822.043 335.237 817.927 333.33 814.46C331.424 810.907 328.824 808.133 325.53 806.14C322.324 804.06 318.727 803.02 314.74 803.02C310.754 803.02 307.114 804.06 303.82 806.14C300.527 808.133 297.927 810.907 296.02 814.46C294.114 817.927 293.16 822.043 293.16 826.81C293.16 831.403 294.114 835.477 296.02 839.03C297.927 842.583 300.527 845.357 303.82 847.35C307.114 849.343 310.754 850.34 314.74 850.34C318.727 850.34 322.324 849.343 325.53 847.35C328.824 845.357 331.424 842.583 333.33 839.03C335.237 835.477 336.19 831.403 336.19 826.81ZM394.195 791.06C398.875 791.06 403.035 791.58 406.675 792.62C410.315 793.573 413.131 794.96 415.125 796.78C417.205 798.513 418.245 800.55 418.245 802.89C418.245 804.363 417.811 805.75 416.945 807.05C416.078 808.263 414.778 808.87 413.045 808.87C411.831 808.87 410.791 808.653 409.925 808.22C409.145 807.787 408.408 807.267 407.715 806.66C407.021 806.053 406.155 805.447 405.115 804.84C404.161 804.32 402.731 803.887 400.825 803.54C399.005 803.193 397.358 803.02 395.885 803.02C391.291 803.02 387.305 804.06 383.925 806.14C380.631 808.22 378.031 811.037 376.125 814.59C374.305 818.143 373.395 822.173 373.395 826.68C373.395 831.187 374.305 835.217 376.125 838.77C378.031 842.323 380.588 845.14 383.795 847.22C387.088 849.3 390.901 850.34 395.235 850.34C397.835 850.34 399.958 850.167 401.605 849.82C403.251 849.387 404.681 848.867 405.895 848.26C407.195 847.48 408.278 846.7 409.145 845.92C410.098 845.053 411.398 844.62 413.045 844.62C414.951 844.62 416.381 845.227 417.335 846.44C418.375 847.567 418.895 848.997 418.895 850.73C418.895 852.637 417.725 854.5 415.385 856.32C413.131 858.053 410.098 859.483 406.285 860.61C402.471 861.737 398.268 862.3 393.675 862.3C386.915 862.3 381.021 860.74 375.995 857.62C371.055 854.5 367.198 850.253 364.425 844.88C361.738 839.507 360.395 833.44 360.395 826.68C360.395 819.833 361.825 813.767 364.685 808.48C367.545 803.107 371.531 798.86 376.645 795.74C381.758 792.62 387.608 791.06 394.195 791.06ZM443.537 854.37C443.537 856.277 442.93 857.88 441.717 859.18C440.503 860.393 438.943 861 437.037 861C435.217 861 433.657 860.393 432.357 859.18C431.143 857.88 430.537 856.277 430.537 854.37V798.73C430.537 796.823 431.143 795.263 432.357 794.05C433.657 792.75 435.217 792.1 437.037 792.1C438.943 792.1 440.503 792.75 441.717 794.05C442.93 795.263 443.537 796.823 443.537 798.73V854.37ZM436.907 783.52C434.393 783.52 432.573 783.087 431.447 782.22C430.32 781.267 429.757 779.707 429.757 777.54V775.46C429.757 773.293 430.363 771.777 431.577 770.91C432.79 770.043 434.61 769.61 437.037 769.61C439.637 769.61 441.5 770.087 442.627 771.04C443.753 771.907 444.317 773.38 444.317 775.46V777.54C444.317 779.793 443.71 781.353 442.497 782.22C441.37 783.087 439.507 783.52 436.907 783.52ZM492.874 862.3C485.68 862.3 479.44 860.827 474.154 857.88C468.867 854.847 464.75 850.73 461.804 845.53C458.944 840.243 457.514 834.22 457.514 827.46C457.514 819.833 459.03 813.333 462.064 807.96C465.184 802.5 469.214 798.34 474.154 795.48C479.094 792.533 484.337 791.06 489.884 791.06C494.13 791.06 498.16 791.927 501.974 793.66C505.787 795.307 509.167 797.647 512.114 800.68C515.147 803.627 517.53 807.137 519.264 811.21C520.997 815.197 521.907 819.573 521.994 824.34C521.907 826.073 521.214 827.503 519.914 828.63C518.614 829.757 517.097 830.32 515.364 830.32H464.794L461.674 819.27H510.554L508.084 821.61V818.36C507.91 815.327 506.914 812.683 505.094 810.43C503.274 808.09 501.02 806.313 498.334 805.1C495.647 803.8 492.83 803.15 489.884 803.15C487.284 803.15 484.77 803.583 482.344 804.45C480.004 805.23 477.88 806.53 475.974 808.35C474.154 810.17 472.68 812.597 471.554 815.63C470.514 818.577 469.994 822.26 469.994 826.68C469.994 831.447 470.99 835.607 472.984 839.16C474.977 842.713 477.664 845.487 481.044 847.48C484.424 849.387 488.15 850.34 492.224 850.34C495.43 850.34 498.074 850.037 500.154 849.43C502.234 848.737 503.967 847.913 505.354 846.96C506.74 846.007 507.954 845.097 508.994 844.23C510.294 843.45 511.594 843.06 512.894 843.06C514.454 843.06 515.754 843.623 516.794 844.75C517.834 845.79 518.354 847.047 518.354 848.52C518.354 850.427 517.4 852.16 515.494 853.72C513.154 855.973 509.904 857.967 505.744 859.7C501.67 861.433 497.38 862.3 492.874 862.3ZM608.1 791.06C614.253 791.06 619.02 792.36 622.4 794.96C625.78 797.473 628.12 800.897 629.42 805.23C630.806 809.477 631.5 814.243 631.5 819.53V854.37C631.5 856.277 630.85 857.88 629.55 859.18C628.336 860.393 626.82 861 625 861C623.093 861 621.533 860.393 620.32 859.18C619.106 857.88 618.5 856.277 618.5 854.37V819.66C618.5 816.54 618.066 813.767 617.2 811.34C616.333 808.827 614.816 806.833 612.65 805.36C610.57 803.8 607.623 803.02 603.81 803.02C600.256 803.02 597.136 803.8 594.45 805.36C591.763 806.833 589.64 808.827 588.08 811.34C586.606 813.767 585.87 816.54 585.87 819.66V854.37C585.87 856.277 585.22 857.88 583.92 859.18C582.706 860.393 581.19 861 579.37 861C577.463 861 575.903 860.393 574.69 859.18C573.476 857.88 572.87 856.277 572.87 854.37V799.25C572.87 797.343 573.476 795.783 574.69 794.57C575.903 793.27 577.463 792.62 579.37 792.62C581.19 792.62 582.706 793.27 583.92 794.57C585.22 795.783 585.87 797.343 585.87 799.25V806.53L583.53 807.83C584.136 805.923 585.176 804.017 586.65 802.11C588.21 800.117 590.073 798.297 592.24 796.65C594.406 794.917 596.833 793.573 599.52 792.62C602.206 791.58 605.066 791.06 608.1 791.06ZM681.399 862.3C674.206 862.3 667.966 860.827 662.679 857.88C657.393 854.847 653.276 850.73 650.329 845.53C647.469 840.243 646.039 834.22 646.039 827.46C646.039 819.833 647.556 813.333 650.589 807.96C653.709 802.5 657.739 798.34 662.679 795.48C667.619 792.533 672.863 791.06 678.409 791.06C682.656 791.06 686.686 791.927 690.499 793.66C694.313 795.307 697.693 797.647 700.639 800.68C703.673 803.627 706.056 807.137 707.789 811.21C709.523 815.197 710.433 819.573 710.519 824.34C710.433 826.073 709.739 827.503 708.439 828.63C707.139 829.757 705.623 830.32 703.889 830.32H653.319L650.199 819.27H699.079L696.609 821.61V818.36C696.436 815.327 695.439 812.683 693.619 810.43C691.799 808.09 689.546 806.313 686.859 805.1C684.173 803.8 681.356 803.15 678.409 803.15C675.809 803.15 673.296 803.583 670.869 804.45C668.529 805.23 666.406 806.53 664.499 808.35C662.679 810.17 661.206 812.597 660.079 815.63C659.039 818.577 658.519 822.26 658.519 826.68C658.519 831.447 659.516 835.607 661.509 839.16C663.503 842.713 666.189 845.487 669.569 847.48C672.949 849.387 676.676 850.34 680.749 850.34C683.956 850.34 686.599 850.037 688.679 849.43C690.759 848.737 692.493 847.913 693.879 846.96C695.266 846.007 696.479 845.097 697.519 844.23C698.819 843.45 700.119 843.06 701.419 843.06C702.979 843.06 704.279 843.623 705.319 844.75C706.359 845.79 706.879 847.047 706.879 848.52C706.879 850.427 705.926 852.16 704.019 853.72C701.679 855.973 698.429 857.967 694.269 859.7C690.196 861.433 685.906 862.3 681.399 862.3ZM721.183 850.34C720.403 849.127 720.057 847.74 720.143 846.18C720.23 844.533 721.14 843.147 722.873 842.02C724.087 841.24 725.343 840.937 726.643 841.11C728.03 841.197 729.33 841.847 730.543 843.06C732.97 845.747 735.657 847.87 738.603 849.43C741.637 850.99 745.277 851.77 749.523 851.77C751.257 851.683 753.033 851.423 754.853 850.99C756.673 850.47 758.233 849.603 759.533 848.39C760.833 847.09 761.483 845.227 761.483 842.8C761.483 840.633 760.79 838.9 759.403 837.6C758.017 836.3 756.197 835.26 753.943 834.48C751.69 833.613 749.263 832.833 746.663 832.14C743.89 831.36 741.073 830.493 738.213 829.54C735.44 828.587 732.927 827.373 730.673 825.9C728.42 824.34 726.557 822.347 725.083 819.92C723.697 817.493 723.003 814.503 723.003 810.95C723.003 806.877 724.13 803.367 726.383 800.42C728.723 797.473 731.713 795.177 735.353 793.53C739.08 791.883 743.11 791.06 747.443 791.06C749.957 791.06 752.6 791.407 755.373 792.1C758.147 792.707 760.833 793.703 763.433 795.09C766.033 796.477 768.287 798.297 770.193 800.55C771.06 801.677 771.537 803.02 771.623 804.58C771.797 806.14 771.103 807.527 769.543 808.74C768.503 809.607 767.247 809.997 765.773 809.91C764.3 809.823 763.087 809.347 762.133 808.48C760.487 806.4 758.363 804.797 755.763 803.67C753.163 802.457 750.217 801.85 746.923 801.85C745.277 801.85 743.543 802.11 741.723 802.63C739.99 803.063 738.517 803.887 737.303 805.1C736.09 806.313 735.483 808.09 735.483 810.43C735.483 812.597 736.177 814.33 737.563 815.63C739.037 816.93 740.943 818.013 743.283 818.88C745.623 819.747 748.18 820.527 750.953 821.22C753.64 821.913 756.283 822.737 758.883 823.69C761.57 824.643 763.953 825.9 766.033 827.46C768.2 828.933 769.933 830.883 771.233 833.31C772.62 835.65 773.313 838.64 773.313 842.28C773.313 846.527 772.057 850.167 769.543 853.2C767.117 856.147 763.997 858.4 760.183 859.96C756.457 861.52 752.513 862.3 748.353 862.3C743.413 862.3 738.473 861.433 733.533 859.7C728.68 857.88 724.563 854.76 721.183 850.34ZM786.383 793.4H816.933C818.667 793.4 820.097 794.007 821.223 795.22C822.437 796.347 823.043 797.777 823.043 799.51C823.043 801.157 822.437 802.543 821.223 803.67C820.097 804.797 818.667 805.36 816.933 805.36H786.383C784.65 805.36 783.177 804.797 781.963 803.67C780.837 802.457 780.273 801.027 780.273 799.38C780.273 797.647 780.837 796.217 781.963 795.09C783.177 793.963 784.65 793.4 786.383 793.4ZM800.033 776.5C801.94 776.5 803.5 777.15 804.713 778.45C805.927 779.663 806.533 781.223 806.533 783.13V843.45C806.533 845.01 806.793 846.267 807.313 847.22C807.833 848.173 808.527 848.823 809.393 849.17C810.347 849.517 811.3 849.69 812.253 849.69C813.207 849.69 814.03 849.517 814.723 849.17C815.503 848.823 816.413 848.65 817.453 848.65C818.493 848.65 819.447 849.127 820.313 850.08C821.18 851.033 821.613 852.333 821.613 853.98C821.613 856.06 820.487 857.75 818.233 859.05C815.98 860.35 813.553 861 810.953 861C809.48 861 807.747 860.87 805.753 860.61C803.76 860.35 801.81 859.7 799.903 858.66C798.083 857.62 796.567 855.973 795.353 853.72C794.14 851.38 793.533 848.13 793.533 843.97V783.13C793.533 781.223 794.14 779.663 795.353 778.45C796.653 777.15 798.213 776.5 800.033 776.5Z" fill="#613B22"/>
</svg>
