<svg width="1024" height="1024" viewBox="0 0 1024 1024" fill="none" xmlns="http://www.w3.org/2000/svg">
<path d="M693.766 490L644 529.433C576.5 572.433 490.326 586.896 445.873 585.897C401.42 584.898 360.306 576.509 327.496 529.433C294.687 482.356 329.505 385.376 386.435 371.531C452.35 355.501 496.763 369.597 530.783 384.024C579.585 404.72 652.72 454.546 693.766 490ZM693.766 490C602.766 614.5 522.49 657.5 445.873 657.5C369.256 657.5 323.88 631.181 279.547 567.408C246.562 519.959 243.174 460.618 232.597 417.503C224.377 383.997 222.533 372.115 203.627 351.044C190.647 336.577 163.67 331.057 167.665 325.061C171.661 319.064 188.099 316.941 203.627 312.069C216.494 308.031 252.076 272.094 252.076 272.094C252.076 272.094 289.422 240.905 334.489 243.112C398.966 246.269 454.364 364.753 454.364 364.753M693.766 490C693.766 490 788.266 364.753 816.999 379.952C816.999 379.952 828.266 386 838.766 396C849.266 406 855.266 415 855.266 415C882.766 449 693.766 490 693.766 490Z" stroke="#101820" stroke-width="12" stroke-linejoin="bevel"/>
<path d="M223.56 772.8C228.32 772.8 232.613 773.313 236.44 774.34C240.267 775.367 243.3 776.767 245.54 778.54C247.78 780.313 248.9 782.32 248.9 784.56C248.9 785.773 248.48 786.94 247.64 788.06C246.8 789.18 245.68 789.74 244.28 789.74C242.973 789.74 241.9 789.507 241.06 789.04C240.313 788.573 239.567 787.967 238.82 787.22C238.167 786.473 237.233 785.82 236.02 785.26C234.9 784.607 233.267 784.093 231.12 783.72C228.973 783.347 226.827 783.16 224.68 783.16C219.547 783.16 215.02 784.373 211.1 786.8C207.273 789.227 204.24 792.493 202 796.6C199.76 800.707 198.64 805.373 198.64 810.6C198.64 815.827 199.713 820.493 201.86 824.6C204.007 828.707 206.993 831.973 210.82 834.4C214.647 836.827 219.08 838.04 224.12 838.04C227.387 838.04 230 837.76 231.96 837.2C233.92 836.64 235.553 835.987 236.86 835.24C238.54 834.307 239.8 833.373 240.64 832.44C241.573 831.507 242.787 831.04 244.28 831.04C245.867 831.04 247.08 831.553 247.92 832.58C248.853 833.607 249.32 834.867 249.32 836.36C249.32 838.04 248.153 839.813 245.82 841.68C243.487 843.547 240.313 845.133 236.3 846.44C232.38 847.747 227.9 848.4 222.86 848.4C215.767 848.4 209.56 846.767 204.24 843.5C198.92 840.14 194.767 835.613 191.78 829.92C188.887 824.133 187.44 817.693 187.44 810.6C187.44 803.507 188.933 797.113 191.92 791.42C195 785.727 199.247 781.2 204.66 777.84C210.073 774.48 216.373 772.8 223.56 772.8ZM332.698 810.6C332.698 817.88 331.064 824.367 327.798 830.06C324.624 835.753 320.284 840.233 314.778 843.5C309.364 846.767 303.251 848.4 296.438 848.4C289.624 848.4 283.464 846.767 277.958 843.5C272.451 840.233 268.064 835.753 264.798 830.06C261.624 824.367 260.038 817.88 260.038 810.6C260.038 803.32 261.624 796.833 264.798 791.14C268.064 785.447 272.451 780.967 277.958 777.7C283.464 774.433 289.624 772.8 296.438 772.8C303.251 772.8 309.364 774.433 314.778 777.7C320.284 780.967 324.624 785.447 327.798 791.14C331.064 796.833 332.698 803.32 332.698 810.6ZM321.498 810.6C321.498 805.187 320.378 800.427 318.138 796.32C315.991 792.213 313.004 788.993 309.178 786.66C305.444 784.327 301.198 783.16 296.438 783.16C291.678 783.16 287.384 784.327 283.558 786.66C279.824 788.993 276.838 792.213 274.598 796.32C272.358 800.427 271.238 805.187 271.238 810.6C271.238 815.92 272.358 820.633 274.598 824.74C276.838 828.847 279.824 832.113 283.558 834.54C287.384 836.873 291.678 838.04 296.438 838.04C301.198 838.04 305.444 836.873 309.178 834.54C313.004 832.113 315.991 828.847 318.138 824.74C320.378 820.633 321.498 815.92 321.498 810.6ZM394.096 836.64C395.59 836.64 396.85 837.153 397.876 838.18C398.903 839.113 399.416 840.327 399.416 841.82C399.416 843.22 398.903 844.433 397.876 845.46C396.85 846.487 395.59 847 394.096 847H348.736C347.056 847 345.75 846.393 344.816 845.18C343.883 843.967 343.416 842.847 343.416 841.82C343.51 840.887 343.65 840.093 343.836 839.44C344.023 838.787 344.443 838.04 345.096 837.2L385.136 783.02L385.276 784.56H351.396C349.903 784.56 348.643 784.047 347.616 783.02C346.59 781.993 346.076 780.733 346.076 779.24C346.076 777.84 346.59 776.673 347.616 775.74C348.643 774.713 349.903 774.2 351.396 774.2H394.376C395.87 774.2 397.083 774.76 398.016 775.88C399.043 776.907 399.556 778.213 399.556 779.8C399.463 780.453 399.323 781.107 399.136 781.76C398.95 782.32 398.576 783.02 398.016 783.86L358.396 837.34L357.416 836.64H394.096ZM469.759 773.5C471.345 773.5 472.652 774.06 473.679 775.18C474.799 776.207 475.359 777.513 475.359 779.1V840.14C475.359 847.98 473.819 854.467 470.739 859.6C467.659 864.827 463.505 868.7 458.279 871.22C453.145 873.74 447.312 875 440.779 875C437.139 875 433.639 874.627 430.279 873.88C426.919 873.133 424.165 872.153 422.019 870.94C420.245 870.1 418.985 869.027 418.239 867.72C417.585 866.507 417.492 865.2 417.959 863.8C418.612 862.12 419.545 860.953 420.759 860.3C422.065 859.647 423.419 859.647 424.819 860.3C426.312 860.953 428.459 861.84 431.259 862.96C434.152 864.173 437.372 864.78 440.919 864.78C445.772 864.78 449.925 863.847 453.379 861.98C456.832 860.113 459.492 857.36 461.359 853.72C463.225 850.173 464.159 845.74 464.159 840.42V830.48L465.839 833.98C464.345 836.873 462.339 839.393 459.819 841.54C457.299 843.687 454.405 845.367 451.139 846.58C447.872 847.793 444.279 848.4 440.359 848.4C435.039 848.4 430.512 847.28 426.779 845.04C423.139 842.707 420.339 839.533 418.379 835.52C416.512 831.413 415.579 826.7 415.579 821.38V779.1C415.579 777.513 416.092 776.207 417.119 775.18C418.239 774.06 419.592 773.5 421.179 773.5C422.859 773.5 424.212 774.06 425.239 775.18C426.265 776.207 426.779 777.513 426.779 779.1V818.86C426.779 825.207 428.179 830.013 430.979 833.28C433.779 836.453 438.119 838.04 443.999 838.04C447.732 838.04 451.092 837.2 454.079 835.52C457.159 833.84 459.585 831.553 461.359 828.66C463.225 825.673 464.159 822.407 464.159 818.86V779.1C464.159 777.513 464.672 776.207 465.699 775.18C466.725 774.06 468.079 773.5 469.759 773.5ZM570.641 772.8C576.987 772.8 581.981 774.107 585.621 776.72C589.261 779.333 591.827 782.833 593.321 787.22C594.907 791.607 595.701 796.507 595.701 801.92V841.26C595.701 842.847 595.141 844.2 594.021 845.32C592.994 846.44 591.687 847 590.101 847C588.514 847 587.161 846.44 586.041 845.32C585.014 844.2 584.501 842.847 584.501 841.26V802.2C584.501 798.653 583.941 795.48 582.821 792.68C581.794 789.787 580.021 787.5 577.501 785.82C575.074 784.047 571.714 783.16 567.421 783.16C563.501 783.16 559.907 784.047 556.641 785.82C553.374 787.5 550.761 789.787 548.801 792.68C546.841 795.48 545.861 798.653 545.861 802.2V841.26C545.861 842.847 545.301 844.2 544.181 845.32C543.154 846.44 541.847 847 540.261 847C538.674 847 537.321 846.44 536.201 845.32C535.174 844.2 534.661 842.847 534.661 841.26V780.22C534.661 778.633 535.174 777.327 536.201 776.3C537.321 775.18 538.674 774.62 540.261 774.62C541.941 774.62 543.294 775.18 544.321 776.3C545.347 777.327 545.861 778.633 545.861 780.22V790.16L543.061 793.24C543.527 790.813 544.601 788.387 546.281 785.96C547.961 783.44 550.061 781.2 552.581 779.24C555.101 777.28 557.901 775.74 560.981 774.62C564.061 773.407 567.281 772.8 570.641 772.8ZM649.879 848.4C642.412 848.4 635.879 846.813 630.279 843.64C624.679 840.467 620.292 836.127 617.119 830.62C614.039 825.02 612.499 818.58 612.499 811.3C612.499 803.18 614.085 796.273 617.259 790.58C620.525 784.793 624.725 780.407 629.859 777.42C635.085 774.34 640.592 772.8 646.379 772.8C650.672 772.8 654.825 773.593 658.839 775.18C662.852 776.767 666.399 779.1 669.479 782.18C672.559 785.167 675.032 788.807 676.899 793.1C678.765 797.3 679.745 802.013 679.839 807.24C679.839 808.733 679.279 809.993 678.159 811.02C677.039 812.047 675.732 812.56 674.239 812.56H618.939L616.419 802.9H670.319L668.079 804.86V801.78C667.705 797.953 666.399 794.687 664.159 791.98C662.012 789.18 659.352 787.033 656.179 785.54C653.099 784.047 649.832 783.3 646.379 783.3C643.579 783.3 640.779 783.813 637.979 784.84C635.272 785.773 632.799 787.36 630.559 789.6C628.412 791.747 626.639 794.547 625.239 798C623.932 801.453 623.279 805.607 623.279 810.46C623.279 815.873 624.352 820.633 626.499 824.74C628.739 828.847 631.819 832.113 635.739 834.54C639.659 836.873 644.232 838.04 649.459 838.04C652.725 838.04 655.572 837.62 657.999 836.78C660.425 835.94 662.525 834.913 664.299 833.7C666.072 832.393 667.565 831.087 668.779 829.78C669.992 828.94 671.159 828.52 672.279 828.52C673.679 828.52 674.799 828.987 675.639 829.92C676.572 830.853 677.039 831.973 677.039 833.28C677.039 834.867 676.292 836.267 674.799 837.48C672.185 840.373 668.639 842.94 664.159 845.18C659.679 847.327 654.919 848.4 649.879 848.4ZM692.613 835.52C691.773 834.307 691.399 833.047 691.493 831.74C691.586 830.34 692.379 829.127 693.873 828.1C694.806 827.447 695.879 827.167 697.093 827.26C698.399 827.353 699.566 827.96 700.593 829.08C703.206 832.16 706.193 834.633 709.553 836.5C712.913 838.273 717.019 839.16 721.873 839.16C724.113 839.067 726.353 838.693 728.593 838.04C730.833 837.387 732.699 836.267 734.193 834.68C735.779 833 736.573 830.807 736.573 828.1C736.573 825.487 735.779 823.433 734.193 821.94C732.606 820.353 730.553 819.093 728.033 818.16C725.513 817.133 722.759 816.247 719.773 815.5C716.693 814.66 713.659 813.727 710.673 812.7C707.686 811.58 704.979 810.227 702.553 808.64C700.219 806.96 698.306 804.907 696.813 802.48C695.413 799.96 694.713 796.927 694.713 793.38C694.713 789.18 695.833 785.54 698.073 782.46C700.406 779.38 703.486 777 707.313 775.32C711.233 773.64 715.479 772.8 720.053 772.8C722.666 772.8 725.373 773.127 728.173 773.78C731.066 774.34 733.866 775.367 736.573 776.86C739.279 778.26 741.659 780.22 743.713 782.74C744.553 783.673 745.019 784.84 745.113 786.24C745.206 787.64 744.599 788.9 743.293 790.02C742.266 790.767 741.099 791.093 739.793 791C738.579 790.907 737.553 790.44 736.713 789.6C734.753 787.267 732.279 785.493 729.293 784.28C726.399 782.973 723.179 782.32 719.633 782.32C717.393 782.32 715.199 782.647 713.053 783.3C710.906 783.953 709.086 785.073 707.593 786.66C706.193 788.153 705.493 790.253 705.493 792.96C705.586 795.48 706.426 797.533 708.013 799.12C709.599 800.707 711.746 802.013 714.453 803.04C717.159 803.973 720.146 804.907 723.413 805.84C726.399 806.587 729.246 807.473 731.953 808.5C734.753 809.433 737.273 810.693 739.513 812.28C741.753 813.867 743.526 815.92 744.833 818.44C746.139 820.867 746.793 823.947 746.793 827.68C746.793 831.973 745.579 835.707 743.153 838.88C740.726 841.96 737.506 844.34 733.493 846.02C729.573 847.607 725.326 848.4 720.753 848.4C715.619 848.4 710.533 847.42 705.493 845.46C700.546 843.5 696.253 840.187 692.613 835.52ZM760.181 775.04H793.081C794.574 775.04 795.788 775.553 796.721 776.58C797.748 777.607 798.261 778.82 798.261 780.22C798.261 781.713 797.748 782.973 796.721 784C795.788 784.933 794.574 785.4 793.081 785.4H760.181C758.781 785.4 757.568 784.887 756.541 783.86C755.514 782.833 755.001 781.573 755.001 780.08C755.001 778.68 755.514 777.513 756.541 776.58C757.568 775.553 758.781 775.04 760.181 775.04ZM774.881 756C776.468 756 777.774 756.56 778.801 757.68C779.828 758.707 780.341 760.013 780.341 761.6V829.22C780.341 831.46 780.668 833.14 781.321 834.26C781.974 835.38 782.814 836.173 783.841 836.64C784.961 837.013 786.034 837.2 787.061 837.2C787.994 837.2 788.788 837.06 789.441 836.78C790.188 836.407 791.028 836.22 791.961 836.22C792.894 836.22 793.734 836.687 794.481 837.62C795.321 838.46 795.741 839.58 795.741 840.98C795.741 842.66 794.761 844.107 792.801 845.32C790.841 846.44 788.648 847 786.221 847C784.914 847 783.281 846.907 781.321 846.72C779.454 846.533 777.588 845.927 775.721 844.9C773.854 843.873 772.268 842.193 770.961 839.86C769.748 837.433 769.141 834.073 769.141 829.78V761.6C769.141 760.013 769.701 758.707 770.821 757.68C771.941 756.56 773.294 756 774.881 756Z" fill="#101820"/>
</svg>
