<svg width="615" height="570" viewBox="0 0 615 570" fill="none" xmlns="http://www.w3.org/2000/svg">
<path d="M274.272 10.852C267.206 14.852 246.939 34.1854 237.072 46.1854L231.606 52.852L221.072 52.5854C142.006 50.3187 54.5391 135.252 39.2057 229.119C38.4057 233.385 37.8724 244.452 37.7391 253.785C37.6057 269.385 37.3391 270.852 35.2057 270.852C31.4724 270.852 24.9391 276.985 22.4057 282.852C20.4057 287.252 19.3391 288.185 16.1391 288.185C6.00574 288.185 3.87241 293.519 4.00574 318.185C4.13908 346.052 9.33908 362.052 24.4057 382.052C29.6057 388.852 31.8724 393.652 34.5391 402.585C46.5391 444.319 76.9391 478.852 128.806 509.652C168.939 533.519 221.739 551.252 272.539 558.052C313.739 563.519 348.272 563.519 384.539 558.185C437.739 550.185 491.072 527.119 530.272 494.985C562.539 468.719 586.672 429.519 585.739 404.852C585.472 396.852 585.606 396.185 592.939 385.385C604.539 367.919 609.872 352.585 611.872 332.052C614.272 306.319 602.006 262.852 591.339 259.119C586.672 257.519 580.939 259.519 579.739 263.252C578.539 266.585 578.939 272.185 580.539 274.185C582.939 277.385 587.206 293.919 588.672 305.519C593.339 344.585 580.939 378.985 549.339 415.119C511.339 458.452 449.472 490.585 374.539 506.052C321.339 517.119 251.472 517.119 193.872 506.185C148.672 497.652 127.872 488.452 99.2057 464.719C93.7391 460.185 86.8057 453.519 83.7391 450.052C76.9391 441.785 64.5391 423.519 64.5391 421.519C64.5391 420.585 70.9391 423.519 78.9391 427.785C112.806 446.052 137.339 456.452 165.872 464.852C182.272 469.519 214.806 476.585 227.872 478.052C231.606 478.585 241.739 479.785 250.539 480.852C259.339 482.052 281.606 483.252 300.006 483.785L333.606 484.585L335.739 481.119C338.539 477.119 337.472 468.719 334.006 466.985C332.806 466.319 322.406 465.519 310.939 464.985C282.406 463.785 250.806 460.852 223.872 456.719C182.539 450.452 145.339 438.719 109.206 420.585C84.1391 407.919 68.1391 397.252 54.5391 383.519C35.0724 364.185 26.8057 345.785 26.6724 321.119C26.5391 307.385 26.6724 306.452 29.7391 304.052C31.4724 302.719 33.4724 301.519 34.4057 301.519C35.2057 301.519 37.0724 305.652 38.2724 310.719C50.2724 357.252 95.7391 393.919 158.272 407.519C166.406 409.252 182.272 412.852 193.206 415.385C250.272 428.452 291.339 432.985 341.472 431.785C392.672 430.585 438.139 423.385 473.206 410.985C477.472 409.385 481.739 408.319 482.406 408.585C484.806 409.385 455.072 428.185 439.872 435.519C424.539 442.852 408.806 448.852 386.672 455.519C375.072 458.985 373.206 459.919 372.272 463.119C370.672 467.919 373.339 473.785 378.006 475.385C380.672 476.319 386.006 475.252 401.339 470.852C454.139 455.785 487.872 435.919 523.339 399.252C545.206 376.585 557.072 357.252 563.472 334.185C567.472 319.785 567.739 281.652 564.139 268.185C555.072 235.252 542.272 211.519 520.939 188.052C503.872 169.119 491.739 159.785 470.406 149.119C438.939 133.252 410.272 126.985 369.206 126.852H347.739L343.072 121.785C340.406 119.119 335.606 113.252 332.272 108.852C326.006 100.719 317.739 92.452 310.672 87.1187C306.939 84.3187 306.806 83.652 306.539 72.452C305.872 52.5854 297.606 19.9187 290.539 9.7854C287.606 5.7854 282.672 6.05205 274.272 10.852ZM281.872 44.452C282.939 49.7854 283.872 54.7187 284.006 55.5187C289.206 78.5854 289.472 80.3187 287.739 82.5854C284.539 86.7187 285.472 92.1854 290.272 96.5854C311.472 116.585 315.339 120.852 319.206 128.585C321.339 133.119 323.472 139.252 323.872 142.185C329.206 186.185 331.072 194.985 338.139 210.852C342.939 221.652 342.272 223.785 329.606 235.385C306.006 257.385 266.272 266.585 229.206 258.852C213.339 255.652 210.139 255.519 206.939 258.452C203.339 261.652 203.739 270.185 207.606 272.852C211.739 275.519 229.072 279.652 244.272 281.652C274.406 285.652 312.806 274.985 337.606 255.919C351.739 244.985 364.539 226.452 364.539 216.719C364.539 212.719 363.472 210.852 358.672 206.052C353.339 200.852 352.539 199.119 350.139 188.585C348.006 179.252 344.539 153.385 344.539 146.452C344.539 144.052 397.072 146.319 411.472 149.385C436.272 154.719 459.206 164.185 478.939 177.119C497.606 189.385 522.139 218.852 532.672 241.385C549.339 276.985 551.606 315.785 538.406 341.785C529.739 358.985 497.472 381.119 465.206 392.052C453.606 395.919 430.272 402.319 423.339 403.519C421.472 403.785 414.406 404.985 407.872 406.052C365.606 413.385 313.472 414.052 259.872 408.185C237.072 405.652 225.872 403.919 225.206 402.852C223.339 399.785 226.806 398.052 238.939 395.652C274.272 388.985 305.472 373.252 333.872 347.785C337.339 344.719 347.472 337.785 356.406 332.319C373.606 321.919 411.739 301.785 418.539 299.519C429.206 295.919 426.406 280.185 414.939 280.185C413.206 280.185 404.406 283.652 395.206 287.919C367.872 300.719 340.139 317.519 317.872 334.985C299.339 349.519 293.739 353.119 278.806 360.185C259.339 369.252 242.006 374.319 212.272 379.385C206.539 380.452 201.339 385.919 202.539 389.785C203.606 392.719 203.072 392.719 183.206 390.185C159.472 387.252 136.539 380.185 115.472 369.652C91.6058 357.652 72.0057 337.919 63.7391 317.519C57.4724 301.919 56.0057 292.052 55.8724 264.185C55.8724 234.052 56.4057 230.319 63.2057 209.252C83.8724 146.319 132.539 95.252 190.939 75.652C201.739 71.9187 213.072 71.7854 228.139 74.9854C234.939 76.3187 236.672 76.3187 238.406 74.9854C239.606 73.9187 240.539 72.5854 240.539 71.9187C240.539 69.652 268.406 40.9854 273.606 37.9187C276.272 36.1854 278.939 34.852 279.339 34.852C279.739 34.852 280.939 39.252 281.872 44.452ZM552.539 443.919C552.539 445.385 548.406 451.119 543.206 456.985C521.072 482.052 492.539 501.919 455.206 517.919C430.672 528.452 403.072 535.785 369.872 540.319C354.272 542.585 301.739 542.585 285.872 540.452C260.939 537.119 237.872 532.852 237.872 531.785C237.872 531.119 238.939 530.985 240.139 531.385C244.806 533.252 300.139 533.785 320.539 532.319C397.072 526.719 466.806 503.252 520.672 465.119C528.406 459.652 538.006 452.052 542.006 448.319C549.606 441.252 552.539 440.052 552.539 443.919Z" fill="#613B22"/>
<path d="M227.069 148.205C219.603 156.338 233.603 176.871 248.936 180.471C256.536 182.338 266.403 181.671 269.469 179.138C272.136 177.005 272.003 169.805 269.336 166.071C267.603 163.538 266.403 163.271 262.803 163.938C255.603 165.271 249.736 162.338 241.736 153.805C234.003 145.405 230.669 144.205 227.069 148.205Z" fill="#613B22"/>
</svg>
