<svg width="1024" height="1024" viewBox="0 0 1024 1024" fill="none" xmlns="http://www.w3.org/2000/svg">
<path d="M674.5 418L624.734 457.433C557.234 500.433 471.06 514.896 426.607 513.897C382.154 512.898 341.041 504.509 308.231 457.433C275.421 410.356 310.239 313.376 367.169 299.531C433.084 283.501 477.497 297.597 511.517 312.024C560.319 332.72 633.455 382.546 674.5 418ZM674.5 418C583.5 542.5 503.224 585.5 426.607 585.5C349.99 585.5 304.614 559.181 260.281 495.408C227.296 447.959 223.908 388.618 213.331 345.503C205.112 311.997 203.267 300.115 184.362 279.044C171.381 264.577 144.404 259.057 148.4 253.061C152.396 247.064 168.834 244.941 184.362 240.069C197.229 236.031 232.81 200.094 232.81 200.094C232.81 200.094 270.156 168.905 315.223 171.112C379.7 174.269 435.098 292.753 435.098 292.753M674.5 418C674.5 418 769 292.753 797.734 307.952C797.734 307.952 809 314 819.5 324C830 334 836 343 836 343C863.5 377 674.5 418 674.5 418Z" stroke="#6D4023" stroke-width="12" stroke-linejoin="bevel"/>
<path d="M223.56 727.3C228.32 727.3 232.613 727.813 236.44 728.84C240.267 729.867 243.3 731.267 245.54 733.04C247.78 734.813 248.9 736.82 248.9 739.06C248.9 740.273 248.48 741.44 247.64 742.56C246.8 743.68 245.68 744.24 244.28 744.24C242.973 744.24 241.9 744.007 241.06 743.54C240.313 743.073 239.567 742.467 238.82 741.72C238.167 740.973 237.233 740.32 236.02 739.76C234.9 739.107 233.267 738.593 231.12 738.22C228.973 737.847 226.827 737.66 224.68 737.66C219.547 737.66 215.02 738.873 211.1 741.3C207.273 743.727 204.24 746.993 202 751.1C199.76 755.207 198.64 759.873 198.64 765.1C198.64 770.327 199.713 774.993 201.86 779.1C204.007 783.207 206.993 786.473 210.82 788.9C214.647 791.327 219.08 792.54 224.12 792.54C227.387 792.54 230 792.26 231.96 791.7C233.92 791.14 235.553 790.487 236.86 789.74C238.54 788.807 239.8 787.873 240.64 786.94C241.573 786.007 242.787 785.54 244.28 785.54C245.867 785.54 247.08 786.053 247.92 787.08C248.853 788.107 249.32 789.367 249.32 790.86C249.32 792.54 248.153 794.313 245.82 796.18C243.487 798.047 240.313 799.633 236.3 800.94C232.38 802.247 227.9 802.9 222.86 802.9C215.767 802.9 209.56 801.267 204.24 798C198.92 794.64 194.767 790.113 191.78 784.42C188.887 778.633 187.44 772.193 187.44 765.1C187.44 758.007 188.933 751.613 191.92 745.92C195 740.227 199.247 735.7 204.66 732.34C210.073 728.98 216.373 727.3 223.56 727.3ZM332.698 765.1C332.698 772.38 331.064 778.867 327.798 784.56C324.624 790.253 320.284 794.733 314.778 798C309.364 801.267 303.251 802.9 296.438 802.9C289.624 802.9 283.464 801.267 277.958 798C272.451 794.733 268.064 790.253 264.798 784.56C261.624 778.867 260.038 772.38 260.038 765.1C260.038 757.82 261.624 751.333 264.798 745.64C268.064 739.947 272.451 735.467 277.958 732.2C283.464 728.933 289.624 727.3 296.438 727.3C303.251 727.3 309.364 728.933 314.778 732.2C320.284 735.467 324.624 739.947 327.798 745.64C331.064 751.333 332.698 757.82 332.698 765.1ZM321.498 765.1C321.498 759.687 320.378 754.927 318.138 750.82C315.991 746.713 313.004 743.493 309.178 741.16C305.444 738.827 301.198 737.66 296.438 737.66C291.678 737.66 287.384 738.827 283.558 741.16C279.824 743.493 276.838 746.713 274.598 750.82C272.358 754.927 271.238 759.687 271.238 765.1C271.238 770.42 272.358 775.133 274.598 779.24C276.838 783.347 279.824 786.613 283.558 789.04C287.384 791.373 291.678 792.54 296.438 792.54C301.198 792.54 305.444 791.373 309.178 789.04C313.004 786.613 315.991 783.347 318.138 779.24C320.378 775.133 321.498 770.42 321.498 765.1ZM394.096 791.14C395.59 791.14 396.85 791.653 397.876 792.68C398.903 793.613 399.416 794.827 399.416 796.32C399.416 797.72 398.903 798.933 397.876 799.96C396.85 800.987 395.59 801.5 394.096 801.5H348.736C347.056 801.5 345.75 800.893 344.816 799.68C343.883 798.467 343.416 797.347 343.416 796.32C343.51 795.387 343.65 794.593 343.836 793.94C344.023 793.287 344.443 792.54 345.096 791.7L385.136 737.52L385.276 739.06H351.396C349.903 739.06 348.643 738.547 347.616 737.52C346.59 736.493 346.076 735.233 346.076 733.74C346.076 732.34 346.59 731.173 347.616 730.24C348.643 729.213 349.903 728.7 351.396 728.7H394.376C395.87 728.7 397.083 729.26 398.016 730.38C399.043 731.407 399.556 732.713 399.556 734.3C399.463 734.953 399.323 735.607 399.136 736.26C398.95 736.82 398.576 737.52 398.016 738.36L358.396 791.84L357.416 791.14H394.096ZM469.759 728C471.345 728 472.652 728.56 473.679 729.68C474.799 730.707 475.359 732.013 475.359 733.6V794.64C475.359 802.48 473.819 808.967 470.739 814.1C467.659 819.327 463.505 823.2 458.279 825.72C453.145 828.24 447.312 829.5 440.779 829.5C437.139 829.5 433.639 829.127 430.279 828.38C426.919 827.633 424.165 826.653 422.019 825.44C420.245 824.6 418.985 823.527 418.239 822.22C417.585 821.007 417.492 819.7 417.959 818.3C418.612 816.62 419.545 815.453 420.759 814.8C422.065 814.147 423.419 814.147 424.819 814.8C426.312 815.453 428.459 816.34 431.259 817.46C434.152 818.673 437.372 819.28 440.919 819.28C445.772 819.28 449.925 818.347 453.379 816.48C456.832 814.613 459.492 811.86 461.359 808.22C463.225 804.673 464.159 800.24 464.159 794.92V784.98L465.839 788.48C464.345 791.373 462.339 793.893 459.819 796.04C457.299 798.187 454.405 799.867 451.139 801.08C447.872 802.293 444.279 802.9 440.359 802.9C435.039 802.9 430.512 801.78 426.779 799.54C423.139 797.207 420.339 794.033 418.379 790.02C416.512 785.913 415.579 781.2 415.579 775.88V733.6C415.579 732.013 416.092 730.707 417.119 729.68C418.239 728.56 419.592 728 421.179 728C422.859 728 424.212 728.56 425.239 729.68C426.265 730.707 426.779 732.013 426.779 733.6V773.36C426.779 779.707 428.179 784.513 430.979 787.78C433.779 790.953 438.119 792.54 443.999 792.54C447.732 792.54 451.092 791.7 454.079 790.02C457.159 788.34 459.585 786.053 461.359 783.16C463.225 780.173 464.159 776.907 464.159 773.36V733.6C464.159 732.013 464.672 730.707 465.699 729.68C466.725 728.56 468.079 728 469.759 728ZM570.641 727.3C576.987 727.3 581.981 728.607 585.621 731.22C589.261 733.833 591.827 737.333 593.321 741.72C594.907 746.107 595.701 751.007 595.701 756.42V795.76C595.701 797.347 595.141 798.7 594.021 799.82C592.994 800.94 591.687 801.5 590.101 801.5C588.514 801.5 587.161 800.94 586.041 799.82C585.014 798.7 584.501 797.347 584.501 795.76V756.7C584.501 753.153 583.941 749.98 582.821 747.18C581.794 744.287 580.021 742 577.501 740.32C575.074 738.547 571.714 737.66 567.421 737.66C563.501 737.66 559.907 738.547 556.641 740.32C553.374 742 550.761 744.287 548.801 747.18C546.841 749.98 545.861 753.153 545.861 756.7V795.76C545.861 797.347 545.301 798.7 544.181 799.82C543.154 800.94 541.847 801.5 540.261 801.5C538.674 801.5 537.321 800.94 536.201 799.82C535.174 798.7 534.661 797.347 534.661 795.76V734.72C534.661 733.133 535.174 731.827 536.201 730.8C537.321 729.68 538.674 729.12 540.261 729.12C541.941 729.12 543.294 729.68 544.321 730.8C545.347 731.827 545.861 733.133 545.861 734.72V744.66L543.061 747.74C543.527 745.313 544.601 742.887 546.281 740.46C547.961 737.94 550.061 735.7 552.581 733.74C555.101 731.78 557.901 730.24 560.981 729.12C564.061 727.907 567.281 727.3 570.641 727.3ZM649.879 802.9C642.412 802.9 635.879 801.313 630.279 798.14C624.679 794.967 620.292 790.627 617.119 785.12C614.039 779.52 612.499 773.08 612.499 765.8C612.499 757.68 614.085 750.773 617.259 745.08C620.525 739.293 624.725 734.907 629.859 731.92C635.085 728.84 640.592 727.3 646.379 727.3C650.672 727.3 654.825 728.093 658.839 729.68C662.852 731.267 666.399 733.6 669.479 736.68C672.559 739.667 675.032 743.307 676.899 747.6C678.765 751.8 679.745 756.513 679.839 761.74C679.839 763.233 679.279 764.493 678.159 765.52C677.039 766.547 675.732 767.06 674.239 767.06H618.939L616.419 757.4H670.319L668.079 759.36V756.28C667.705 752.453 666.399 749.187 664.159 746.48C662.012 743.68 659.352 741.533 656.179 740.04C653.099 738.547 649.832 737.8 646.379 737.8C643.579 737.8 640.779 738.313 637.979 739.34C635.272 740.273 632.799 741.86 630.559 744.1C628.412 746.247 626.639 749.047 625.239 752.5C623.932 755.953 623.279 760.107 623.279 764.96C623.279 770.373 624.352 775.133 626.499 779.24C628.739 783.347 631.819 786.613 635.739 789.04C639.659 791.373 644.232 792.54 649.459 792.54C652.725 792.54 655.572 792.12 657.999 791.28C660.425 790.44 662.525 789.413 664.299 788.2C666.072 786.893 667.565 785.587 668.779 784.28C669.992 783.44 671.159 783.02 672.279 783.02C673.679 783.02 674.799 783.487 675.639 784.42C676.572 785.353 677.039 786.473 677.039 787.78C677.039 789.367 676.292 790.767 674.799 791.98C672.185 794.873 668.639 797.44 664.159 799.68C659.679 801.827 654.919 802.9 649.879 802.9ZM692.613 790.02C691.773 788.807 691.399 787.547 691.493 786.24C691.586 784.84 692.379 783.627 693.873 782.6C694.806 781.947 695.879 781.667 697.093 781.76C698.399 781.853 699.566 782.46 700.593 783.58C703.206 786.66 706.193 789.133 709.553 791C712.913 792.773 717.019 793.66 721.873 793.66C724.113 793.567 726.353 793.193 728.593 792.54C730.833 791.887 732.699 790.767 734.193 789.18C735.779 787.5 736.573 785.307 736.573 782.6C736.573 779.987 735.779 777.933 734.193 776.44C732.606 774.853 730.553 773.593 728.033 772.66C725.513 771.633 722.759 770.747 719.773 770C716.693 769.16 713.659 768.227 710.673 767.2C707.686 766.08 704.979 764.727 702.553 763.14C700.219 761.46 698.306 759.407 696.813 756.98C695.413 754.46 694.713 751.427 694.713 747.88C694.713 743.68 695.833 740.04 698.073 736.96C700.406 733.88 703.486 731.5 707.313 729.82C711.233 728.14 715.479 727.3 720.053 727.3C722.666 727.3 725.373 727.627 728.173 728.28C731.066 728.84 733.866 729.867 736.573 731.36C739.279 732.76 741.659 734.72 743.713 737.24C744.553 738.173 745.019 739.34 745.113 740.74C745.206 742.14 744.599 743.4 743.293 744.52C742.266 745.267 741.099 745.593 739.793 745.5C738.579 745.407 737.553 744.94 736.713 744.1C734.753 741.767 732.279 739.993 729.293 738.78C726.399 737.473 723.179 736.82 719.633 736.82C717.393 736.82 715.199 737.147 713.053 737.8C710.906 738.453 709.086 739.573 707.593 741.16C706.193 742.653 705.493 744.753 705.493 747.46C705.586 749.98 706.426 752.033 708.013 753.62C709.599 755.207 711.746 756.513 714.453 757.54C717.159 758.473 720.146 759.407 723.413 760.34C726.399 761.087 729.246 761.973 731.953 763C734.753 763.933 737.273 765.193 739.513 766.78C741.753 768.367 743.526 770.42 744.833 772.94C746.139 775.367 746.793 778.447 746.793 782.18C746.793 786.473 745.579 790.207 743.153 793.38C740.726 796.46 737.506 798.84 733.493 800.52C729.573 802.107 725.326 802.9 720.753 802.9C715.619 802.9 710.533 801.92 705.493 799.96C700.546 798 696.253 794.687 692.613 790.02ZM760.181 729.54H793.081C794.574 729.54 795.788 730.053 796.721 731.08C797.748 732.107 798.261 733.32 798.261 734.72C798.261 736.213 797.748 737.473 796.721 738.5C795.788 739.433 794.574 739.9 793.081 739.9H760.181C758.781 739.9 757.568 739.387 756.541 738.36C755.514 737.333 755.001 736.073 755.001 734.58C755.001 733.18 755.514 732.013 756.541 731.08C757.568 730.053 758.781 729.54 760.181 729.54ZM774.881 710.5C776.468 710.5 777.774 711.06 778.801 712.18C779.828 713.207 780.341 714.513 780.341 716.1V783.72C780.341 785.96 780.668 787.64 781.321 788.76C781.974 789.88 782.814 790.673 783.841 791.14C784.961 791.513 786.034 791.7 787.061 791.7C787.994 791.7 788.788 791.56 789.441 791.28C790.188 790.907 791.028 790.72 791.961 790.72C792.894 790.72 793.734 791.187 794.481 792.12C795.321 792.96 795.741 794.08 795.741 795.48C795.741 797.16 794.761 798.607 792.801 799.82C790.841 800.94 788.648 801.5 786.221 801.5C784.914 801.5 783.281 801.407 781.321 801.22C779.454 801.033 777.588 800.427 775.721 799.4C773.854 798.373 772.268 796.693 770.961 794.36C769.748 791.933 769.141 788.573 769.141 784.28V716.1C769.141 714.513 769.701 713.207 770.821 712.18C771.941 711.06 773.294 710.5 774.881 710.5Z" fill="#6D4023"/>
</svg>
