<svg width="512" height="470" viewBox="0 0 512 470" fill="none" xmlns="http://www.w3.org/2000/svg">
<path d="M477.867 401.4H452.267V247.8C452.267 244.771 452.173 241.758 452.002 238.772C449.433 194.305 426.709 153.84 389.658 127.762C367.377 112.061 341.94 102.811 315.734 100.302V68.6H324.267H341.334C346.044 68.6 349.867 64.786 349.867 60.067C349.867 55.348 346.044 51.534 341.334 51.534H332.8V17.4H341.333C346.043 17.4 349.866 13.586 349.866 8.867C349.866 4.148 346.043 0.334 341.333 0.334H324.266H290.133H273.066C268.356 0.334 264.533 4.148 264.533 8.867C264.533 13.586 268.356 17.4 273.066 17.4H281.599V51.533H273.066C268.356 51.533 264.533 55.347 264.533 60.066C264.533 64.785 268.356 68.599 273.066 68.599H290.133H298.666V99.635C284.978 99.865 271.214 101.905 257.715 105.881L167.996 132.275C157.619 135.313 146.885 136.866 136.09 136.866H129.852C113.442 136.866 97.323 132.403 83.243 123.955C75.862 119.526 69.428 112.537 63.582 102.588C57.464 92.152 46.174 85.666 34.134 85.666C15.309 85.667 0 100.975 0 119.8V316.067C0 331.931 10.923 345.174 25.6 348.989V375.8C25.6 380.519 29.423 384.333 34.133 384.333C38.843 384.333 42.666 380.519 42.666 375.8V348.988C57.343 345.174 68.266 331.93 68.266 316.066V299C68.266 275.474 87.406 256.333 110.933 256.333H230.4C239.514 256.333 248.457 258.748 256.247 263.313C274.816 274.184 283.886 297.352 278.306 319.667L257.869 401.4H34.133C15.309 401.4 0 416.709 0 435.533C0 454.358 15.309 469.666 34.133 469.666H477.866C496.691 469.666 511.999 454.357 511.999 435.533C512 416.709 496.691 401.4 477.867 401.4ZM119.467 171H170.667C175.377 171 179.2 174.814 179.2 179.533C179.2 184.252 175.377 188.066 170.667 188.066H119.467C114.757 188.066 110.934 184.252 110.934 179.533C110.934 174.814 114.756 171 119.467 171ZM204.8 222.2H119.467C114.757 222.2 110.934 218.386 110.934 213.667C110.934 208.948 114.757 205.134 119.467 205.134H204.8C209.51 205.134 213.333 208.948 213.333 213.667C213.333 218.386 209.51 222.2 204.8 222.2ZM298.667 17.4H315.734V51.533H298.667V17.4ZM341.333 367.267C336.623 367.267 332.8 363.444 332.8 358.734C332.8 354.024 336.623 350.201 341.333 350.201C346.043 350.201 349.866 354.024 349.866 358.734C349.866 363.444 346.044 367.267 341.333 367.267ZM375.467 367.267C370.757 367.267 366.934 363.444 366.934 358.734C366.934 354.024 370.757 350.201 375.467 350.201C380.177 350.201 384 354.024 384 358.734C384 363.444 380.177 367.267 375.467 367.267ZM341.333 256.333C317.807 256.333 298.666 237.193 298.666 213.666C298.666 190.14 317.806 170.999 341.333 170.999C364.86 171 384 190.14 384 213.667C384 237.193 364.86 256.333 341.333 256.333Z" fill="#613B22"/>
<path d="M341.333 188.067C327.219 188.067 315.733 199.553 315.733 213.667C315.733 227.781 327.219 239.267 341.333 239.267C355.447 239.267 366.933 227.781 366.933 213.667C366.933 199.553 355.447 188.067 341.333 188.067ZM341.333 222.2C336.623 222.2 332.8 218.377 332.8 213.667C332.8 208.957 336.623 205.134 341.333 205.134C346.043 205.134 349.866 208.957 349.866 213.667C349.866 218.377 346.044 222.2 341.333 222.2Z" fill="#613B22"/>
<path d="M511.999 273.4H460.799V290.467H511.999V273.4Z" fill="#613B22"/>
<path d="M486.4 222.2C472.286 222.2 460.8 233.686 460.8 247.8V256.333H512V247.8C512 233.686 500.514 222.2 486.4 222.2Z" fill="#613B22"/>
<path d="M460.8 350.2C460.8 364.314 472.286 375.8 486.4 375.8C500.514 375.8 512 364.314 512 350.2V341.667H460.8V350.2Z" fill="#613B22"/>
<path d="M511.999 307.533H460.799V324.6H511.999V307.533Z" fill="#613B22"/>
</svg>
