<svg width="593" height="586" viewBox="0 0 593 586" fill="none" xmlns="http://www.w3.org/2000/svg">
<path d="M16.9231 585.232C16.3676 582.785 16.9189 585.233 16.9189 585.233L16.9217 585.232L16.9231 585.232C16.9231 585.232 16.9184 585.233 16.9217 585.232C69.7346 577.915 106.748 528.995 99.4311 476.182L92.3534 425.098C109.1 450.164 130.099 472.525 154.848 491.251C212.996 535.246 284.797 553.965 357.025 543.957C506.125 523.299 610.62 385.191 589.961 236.091C579.954 163.865 542.42 99.858 484.271 55.8614C426.123 11.8658 354.321 -6.85301 282.095 3.15412C209.868 13.1612 145.862 50.6955 101.865 108.845C57.8689 166.994 39.1503 238.794 49.1574 311.021C49.3926 312.719 49.6576 314.408 49.9235 316.097L72.5111 479.914C77.7706 517.883 57.5004 558 18.0101 564.5C-21.4802 571 16.9231 585.232 16.9231 585.232ZM88.2765 356.986C116.156 374.583 145.876 388.318 176.792 397.975C177.105 398.621 177.458 399.255 177.883 399.861C213.661 450.869 260.755 491.577 315.693 519.374C263.712 518.666 213.478 501.532 171.246 469.578C132.691 440.405 104.218 401.457 88.2765 356.986ZM406.659 396.189C432.792 417.273 461.573 434.723 492.429 448.166C482.039 458.477 470.705 467.88 458.55 476.245C458.317 476.156 458.086 476.062 457.846 475.984C409.716 460.497 372.34 440.213 339.454 411.496C339.934 411.432 340.413 411.381 340.891 411.314C363.46 408.187 385.44 403.096 406.659 396.189ZM303.134 414.659C303.158 414.683 303.177 414.71 303.2 414.733C338.501 450.379 377.56 475.428 427.748 494.278C409.825 503.079 390.592 509.793 370.314 514.056C313.938 492.53 258.986 454.87 219.06 408.5C246.564 413.669 274.729 415.766 303.134 414.659ZM511.637 426.748C484.915 415.913 459.782 401.909 436.661 384.984C484.843 364.611 528.245 334.342 564.402 295.615C560.018 344.329 541.142 389.737 511.637 426.748ZM564.555 253.672C508.276 325.488 427.771 371.839 337.161 384.393C245.862 397.042 151.639 371.256 77.5443 316.484C77.0066 313.435 76.506 310.374 76.0787 307.29C74.2617 294.176 73.5157 281.08 73.7764 268.094C228.23 367.117 432.071 340.263 555.567 204.686C558.874 216.102 561.381 227.834 563.042 239.82C563.684 244.451 564.177 249.068 564.555 253.672ZM86.6432 194.619C158.703 235.675 236.921 252.69 313.727 243.843C393.766 234.625 466.264 197.737 524.074 136.993C532.201 149.144 539.225 161.994 545.05 175.436C428.532 314.391 224.965 341.209 76.3678 237.122C78.5148 222.661 81.943 208.443 86.6432 194.619ZM196.886 60.4124C185.993 109.093 184.887 159.632 193.588 208.623C174.409 203.888 155.314 197.431 136.478 189.232C135.937 158.772 139.428 128.334 146.842 98.6073C161.908 83.6687 178.716 70.8671 196.886 60.4124ZM111.425 142.781C110.227 153.849 109.517 164.962 109.31 176.089C105.168 173.879 101.047 171.571 96.941 169.186C101.2 160.148 106.031 151.332 111.425 142.781ZM294.76 133.641C291.615 98.599 293.796 63.1506 301.35 28.43C353.689 24.4708 405.156 37.1698 449.516 64.904C406.28 109.423 349.692 134.619 294.76 133.641ZM471.971 80.7131C485.055 91.0416 496.93 102.515 507.482 114.969C453.558 172.978 385.107 207.111 312.385 216.064C306.164 197.978 301.468 179.515 298.299 160.849C360.699 160.692 424.215 131.418 471.971 80.7131ZM272.843 32.2281C261.029 94.2193 265.003 158.06 284.47 218.255C263.931 218.961 243.166 217.698 222.39 214.433C210.651 158.54 212.859 100.064 228.901 44.9902C243.001 39.4269 257.694 35.1418 272.843 32.2281Z" fill="#613B22"/>
</svg>
